<mxfile host="app.diagrams.net" modified="2023-10-10T06:00:55.086Z" agent="Mozilla/5.0 (Macintosh; Intel Mac OS X 10_15_7) AppleWebKit/537.36 (KHTML, like Gecko) Chrome/117.0.0.0 Safari/537.36" version="22.0.4" etag="5k5QzlKxtULiBip8-TMN" type="github">
  <diagram name="Страница — 1" id="SG4o80NGPrq989y_nELc">
    <mxGraphModel>
      <root>
        <mxCell id="0" />
        <mxCell id="1" parent="0" />
      </root>
    </mxGraphModel>
  </diagram>
</mxfile>
